<?xml version="1.0" standalone="no"?>
<!DOCTYPE svg PUBLIC "-//W3C//DTD SVG 20010904//EN"
 "http://www.w3.org/TR/2001/REC-SVG-20010904/DTD/svg10.dtd">
<svg version="1.0" xmlns="http://www.w3.org/2000/svg"
 width="185.000000pt" height="185.000000pt" viewBox="0 0 185.000000 185.000000"
 preserveAspectRatio="xMidYMid meet">
<metadata>
Created by potrace 1.14, written by Peter Selinger 2001-2017
</metadata>
<g transform="translate(0.000000,185.000000) scale(0.100000,-0.100000)"
fill="#000000" stroke="none">
<path d="M828 1845 c-2 -2 -22 -5 -45 -9 -287 -39 -555 -234 -687 -502 -128
-260 -122 -586 16 -834 135 -243 343 -396 623 -461 110 -25 306 -20 420 11
344 94 589 351 665 698 26 115 22 301 -9 417 -89 334 -376 602 -714 666 -54
10 -261 21 -269 14z m237 -140 c109 -23 200 -60 295 -120 50 -31 190 -167 208
-202 11 -20 10 -21 -16 -16 -15 3 -102 6 -194 6 l-167 0 -10 46 c-12 54 -19
103 -26 186 -3 32 -11 63 -18 68 -19 13 -128 -1 -149 -20 -15 -13 -17 -25 -12
-67 6 -50 28 -180 38 -223 4 -18 -1 -23 -27 -28 -18 -4 -99 -29 -180 -56 -82
-27 -155 -49 -163 -49 -24 0 -36 -40 -30 -102 6 -70 8 -73 49 -95 37 -19 168
-123 374 -297 103 -87 103 -87 126 -69 32 23 77 87 77 107 0 9 -28 37 -62 64
-122 93 -328 264 -328 272 0 8 168 60 196 60 15 0 25 -13 39 -52 35 -98 73
-176 92 -186 22 -12 111 3 131 23 11 10 9 23 -14 76 -14 35 -35 87 -44 116
-18 49 -18 51 0 56 22 6 277 0 307 -7 11 -2 42 -8 67 -11 51 -8 56 -16 77
-139 11 -63 8 -208 -5 -265 -58 -255 -219 -456 -450 -561 -99 -45 -180 -63
-306 -66 -141 -4 -248 18 -366 77 -75 37 -194 122 -201 144 -1 6 18 11 44 13
121 7 259 75 354 174 15 17 34 28 41 25 7 -3 71 -55 142 -116 71 -61 133 -111
138 -111 14 0 87 80 94 104 5 16 -2 27 -31 51 -101 80 -559 456 -623 512 -83
72 -81 72 -132 -5 -38 -58 -38 -73 2 -102 69 -49 258 -204 258 -211 0 -14 -93
-88 -138 -110 -25 -12 -68 -28 -96 -34 -51 -11 -163 -12 -191 -1 -43 16 -96
207 -100 356 -13 443 358 808 805 795 52 -2 109 -6 125 -10z"/>
</g>
</svg>
