<?xml version="1.0" standalone="no"?>
<!DOCTYPE svg PUBLIC "-//W3C//DTD SVG 20010904//EN"
 "http://www.w3.org/TR/2001/REC-SVG-20010904/DTD/svg10.dtd">
<svg version="1.0" xmlns="http://www.w3.org/2000/svg"
 width="1132.000000pt" height="1132.000000pt" viewBox="0 0 1132.000000 1132.000000"
 preserveAspectRatio="xMidYMid meet">
<metadata>
Created by potrace 1.14, written by Peter Selinger 2001-2017
</metadata>
<g transform="translate(0.000000,1132.000000) scale(0.100000,-0.100000)"
fill="#000000" stroke="none">
<path d="M5354 10717 c3 -34 7 -71 10 -83 2 -11 7 -83 11 -160 3 -76 8 -166
10 -199 6 -100 15 -463 21 -783 l4 -304 -92 6 c-51 4 -120 9 -153 11 -33 3
-89 7 -125 9 -36 3 -99 8 -140 12 -41 4 -94 7 -117 8 -24 0 -43 3 -43 6 0 3
-21 5 -48 6 -48 0 -111 6 -357 29 -33 4 -78 8 -100 10 -22 2 -67 7 -100 10
-61 6 -105 10 -208 19 -31 3 -70 8 -85 10 -15 2 -58 7 -97 11 -38 3 -81 8 -95
10 -14 2 -56 7 -95 11 -108 10 -136 13 -190 19 -27 3 -72 8 -100 10 -54 5
-125 14 -165 20 -14 2 -56 6 -95 10 -38 3 -81 8 -95 10 -14 2 -52 6 -85 10
-33 3 -71 8 -85 10 -14 2 -70 9 -125 15 -55 6 -116 13 -135 16 -19 2 -60 7
-90 10 -77 8 -99 11 -150 18 -25 3 -65 8 -90 11 -25 2 -58 7 -75 10 -30 5 -65
9 -180 20 -57 6 -100 12 -100 15 0 1 -21 3 -47 5 -25 2 -64 7 -85 10 -21 4
-53 8 -70 8 -18 1 -33 4 -33 7 0 3 -19 6 -43 6 -23 1 -60 4 -82 8 -22 3 -60 8
-85 10 -25 3 -45 5 -45 6 0 2 -42 7 -105 15 -25 2 -61 7 -80 10 -19 3 -51 7
-70 9 -19 3 -55 7 -80 11 -25 3 -65 8 -90 10 -25 3 -76 10 -115 15 -38 5 -92
12 -119 16 -27 3 -56 7 -65 9 -20 4 -92 13 -156 20 -27 3 -75 10 -105 16 -77
16 -168 19 -212 8 -85 -22 -126 -135 -76 -209 13 -19 40 -44 61 -55 31 -17 41
-32 68 -100 18 -44 35 -84 39 -90 4 -5 15 -32 25 -60 10 -27 31 -78 47 -113
15 -34 28 -65 28 -68 0 -4 12 -34 26 -68 14 -33 30 -70 34 -81 4 -11 15 -36
23 -55 8 -19 27 -65 42 -102 25 -62 77 -126 105 -129 6 -1 18 -2 28 -3 10 0
33 -18 51 -38 37 -43 70 -55 166 -63 39 -4 88 -8 110 -10 59 -6 154 -15 204
-19 24 -3 74 -7 110 -11 36 -3 84 -8 106 -10 72 -7 149 -15 220 -20 39 -4 81
-8 95 -10 14 -2 59 -7 100 -10 41 -3 95 -8 120 -10 25 -3 72 -7 105 -10 33 -3
83 -7 110 -10 28 -2 73 -7 100 -9 28 -3 79 -8 115 -11 36 -3 88 -8 115 -11 28
-2 75 -6 105 -9 64 -5 160 -14 210 -20 19 -2 75 -7 123 -10 49 -4 96 -8 105
-10 10 -2 27 -4 38 -4 17 -1 21 -6 18 -28 -4 -36 -15 -185 -18 -243 -1 -25 -5
-50 -8 -55 -8 -14 -1333 -8 -1333 5 0 1 -34 4 -75 6 -83 5 -175 12 -175 14 0
2 -12 3 -110 14 -27 3 -69 8 -93 12 l-43 6 7 -28 c4 -16 7 -34 7 -41 0 -7 5
-13 10 -13 6 0 8 -3 5 -6 -3 -3 1 -29 8 -57 16 -56 24 -86 27 -102 2 -5 6 -16
10 -23 13 -19 11 -87 -4 -113 -7 -13 -12 -25 -11 -26 1 -2 2 -4 1 -5 -7 -26
-7 -52 3 -93 6 -27 11 -105 11 -171 -1 -110 -3 -125 -23 -152 -25 -33 -33 -93
-19 -130 15 -40 91 -120 131 -138 45 -20 99 -14 139 15 29 22 20 22 349 5 74
-3 173 -7 220 -8 47 -1 90 -4 95 -7 6 -2 54 -4 107 -4 54 0 98 -2 98 -5 0 -3
42 -5 93 -4 50 0 100 -3 109 -8 10 -5 19 -4 23 2 4 6 11 8 16 5 8 -6 243 -19
312 -18 23 1 30 -6 29 -27 0 -3 -3 -41 -6 -85 -3 -44 -8 -120 -12 -170 -3 -49
-7 -106 -9 -125 -2 -19 -6 -82 -10 -140 -3 -58 -8 -121 -10 -140 -2 -19 -6
-87 -10 -150 -4 -63 -8 -121 -10 -130 -1 -8 -6 -69 -10 -135 -3 -66 -8 -136
-10 -155 -2 -19 -6 -80 -10 -135 -3 -55 -8 -120 -10 -145 -2 -25 -6 -85 -9
-135 -4 -49 -8 -115 -11 -145 -2 -30 -7 -91 -10 -135 -3 -44 -8 -107 -10 -140
-3 -33 -7 -91 -10 -130 -2 -38 -6 -99 -9 -135 -3 -36 -8 -103 -11 -150 -3 -47
-8 -121 -12 -165 -3 -44 -6 -101 -7 -127 -1 -27 -3 -48 -6 -48 -3 0 -6 -26 -7
-58 -3 -133 -5 -143 -32 -175 -66 -80 -416 -433 -607 -614 -141 -133 -142
-134 -264 -243 -46 -41 -96 -87 -112 -103 -16 -15 -31 -27 -33 -27 -3 0 -20
-15 -39 -33 -19 -17 -53 -48 -77 -67 -23 -19 -47 -40 -53 -45 -6 -6 -51 -44
-101 -85 -49 -41 -92 -77 -95 -80 -3 -3 -25 -21 -50 -40 -25 -19 -56 -44 -70
-57 -14 -12 -92 -74 -175 -137 -82 -64 -160 -125 -172 -135 -13 -11 -23 -17
-23 -15 0 2 -16 -10 -36 -28 -32 -30 -35 -37 -31 -72 6 -45 32 -75 71 -82 21
-4 57 12 159 71 183 104 191 109 197 116 3 3 25 17 50 31 71 40 263 159 289
179 13 11 30 19 37 19 8 0 14 4 14 9 0 5 9 13 20 16 11 3 26 12 33 18 25 23
76 57 87 57 5 0 10 5 10 10 0 6 7 10 15 10 8 0 15 5 15 10 0 6 6 10 14 10 8 0
16 3 18 8 2 4 23 21 48 38 25 17 83 57 130 89 114 78 450 329 580 434 58 46
110 88 116 93 8 6 10 -12 6 -64 -3 -40 -5 -94 -6 -120 -1 -27 -3 -48 -6 -48
-3 0 -5 -21 -4 -48 0 -26 -3 -59 -7 -74 -5 -17 -4 -28 2 -28 6 0 7 -5 3 -12
-4 -7 -9 -28 -10 -48 -1 -19 -5 -80 -9 -135 -3 -55 -8 -127 -10 -160 -2 -33
-6 -85 -9 -115 -2 -30 -7 -95 -10 -145 -4 -49 -8 -115 -11 -145 -3 -30 -7 -91
-10 -135 -3 -44 -7 -111 -10 -150 -5 -79 11 -124 57 -158 26 -20 118 -40 118
-27 0 4 6 7 13 7 6 0 20 4 30 8 12 5 17 2 17 -11 0 -15 5 -12 21 11 20 29 21
26 4 -20 -8 -20 -8 -20 8 0 8 11 19 17 23 13 4 -4 14 -2 22 5 13 10 14 9 7 -2
-6 -11 -4 -13 9 -8 11 4 15 3 11 -4 -4 -6 -13 -8 -21 -5 -8 3 -14 1 -14 -4 0
-6 8 -10 17 -10 9 0 24 -7 34 -16 16 -14 17 -14 14 3 -1 10 -8 17 -14 15 -15
-3 -14 3 5 18 12 11 15 11 12 1 -2 -8 5 -15 15 -16 24 -4 32 -13 23 -22 -4 -4
-11 -1 -16 7 -6 9 -10 10 -10 3 0 -22 23 -26 37 -8 7 11 13 15 13 9 0 -5 15
-17 32 -27 l33 -19 -19 21 c-11 12 -16 24 -13 28 4 3 7 1 7 -6 0 -8 7 -11 15
-7 8 3 14 0 12 -6 -1 -7 8 -13 20 -14 12 -1 20 3 17 7 -7 12 3 11 29 -2 22
-12 22 -11 4 9 -12 13 -15 22 -7 27 6 4 9 1 8 -7 -2 -7 4 -13 12 -13 8 0 14 6
12 13 -2 9 3 10 16 3 11 -6 24 -6 34 0 11 6 19 5 24 -2 4 -7 3 -9 -3 -6 -6 4
-19 -3 -29 -16 -19 -22 -19 -22 1 -6 11 9 31 15 45 13 83 -13 136 2 176 49 29
32 32 45 39 152 3 50 7 115 10 145 3 30 7 93 10 140 3 47 7 108 9 135 3 28 7
95 11 150 3 55 8 118 10 140 2 22 7 85 10 140 3 55 8 123 10 150 3 28 7 84 10
125 2 41 7 109 10 150 7 97 13 173 20 285 4 50 8 106 10 125 2 19 6 87 10 150
4 63 8 131 10 150 3 19 7 80 11 135 3 55 7 114 9 130 1 17 3 44 4 61 1 21 14
45 41 75 23 24 73 79 113 123 40 43 90 98 112 122 225 247 589 702 755 944 13
19 27 37 30 40 9 8 154 223 230 340 5 8 29 45 52 81 24 36 49 77 57 90 8 13
44 71 80 129 88 144 251 428 251 439 0 5 3 11 8 13 4 2 38 64 76 138 38 74 72
139 76 143 4 4 6 -90 4 -210 -9 -836 -35 -2667 -49 -3438 -3 -148 -7 -407 -10
-575 -7 -432 -13 -725 -21 -1030 -4 -146 -7 -377 -8 -515 -1 -241 0 -251 21
-292 51 -94 141 -132 312 -132 255 1 404 81 444 238 10 38 12 150 10 468 -1
230 -2 454 -2 498 0 44 0 85 0 90 0 6 -2 40 -4 77 -3 45 0 68 7 68 7 0 8 3 1
8 -6 4 -11 63 -11 137 -2 256 -17 1192 -29 1830 -3 171 -8 416 -10 545 -8 459
-16 848 -20 1050 -11 503 -17 831 -18 1039 l-2 224 60 -1 c175 -1 159 3 179
-44 10 -24 26 -61 36 -83 9 -22 25 -57 34 -77 36 -84 51 -117 89 -198 118
-253 265 -540 390 -764 37 -65 67 -122 67 -127 0 -5 5 -9 10 -9 6 0 10 -7 10
-15 0 -8 4 -15 9 -15 5 0 11 -8 15 -17 11 -34 157 -273 278 -455 43 -65 78
-123 78 -128 0 -6 4 -10 8 -10 4 0 16 -15 27 -32 10 -18 23 -37 27 -43 5 -5
38 -53 74 -105 37 -52 69 -97 73 -100 3 -3 12 -17 20 -32 8 -16 18 -28 23 -28
4 0 8 -5 8 -11 0 -6 6 -16 13 -23 6 -7 21 -25 32 -41 11 -15 38 -51 61 -79 22
-28 65 -85 96 -126 52 -70 192 -242 272 -335 19 -22 44 -51 56 -65 67 -78 129
-149 160 -181 96 -101 107 -118 109 -162 3 -63 9 -142 11 -142 1 0 3 -25 5
-55 6 -98 13 -193 20 -262 4 -37 9 -96 11 -130 2 -35 6 -85 8 -113 3 -27 7
-86 10 -130 3 -44 8 -100 10 -125 3 -25 8 -81 11 -125 3 -44 7 -102 9 -130 3
-27 7 -90 11 -140 4 -49 8 -110 11 -135 2 -25 6 -76 9 -115 2 -38 7 -92 10
-120 2 -27 7 -88 10 -135 3 -46 8 -96 12 -110 16 -68 78 -111 147 -103 22 3
58 5 79 6 36 1 36 2 15 14 -18 10 -20 12 -5 13 9 0 17 5 17 11 0 5 4 8 9 5 5
-4 11 -1 13 6 3 8 7 6 11 -5 3 -9 1 -19 -5 -23 -7 -4 -8 -3 -4 4 5 8 1 10 -9
5 -13 -4 -14 -8 -4 -14 7 -4 17 -5 22 -2 12 7 48 -28 40 -40 -3 -6 -1 -7 6 -3
8 5 5 16 -11 39 -20 28 -20 30 -3 17 11 -8 26 -22 33 -30 11 -13 12 -11 6 10
-6 24 -6 24 9 5 10 -13 12 -24 6 -32 -7 -7 -6 -14 2 -19 7 -4 9 -3 5 4 -3 6
-2 13 4 17 6 4 8 10 5 15 -3 5 -1 11 5 15 5 3 10 -1 10 -9 0 -9 5 -16 11 -16
5 0 7 6 4 13 -4 6 1 3 9 -7 9 -11 16 -14 16 -7 0 7 5 9 10 6 6 -3 10 -1 10 5
0 7 -7 10 -15 6 -8 -3 -15 -1 -15 4 0 16 37 11 44 -6 3 -8 10 -13 15 -10 5 4
12 0 14 -6 4 -10 6 -10 6 0 1 6 6 12 12 12 5 0 7 -6 3 -12 -6 -10 -4 -10 8 0
13 10 17 10 20 0 3 -7 7 -3 10 10 5 19 3 20 -12 12 -13 -7 -21 -7 -25 0 -6 10
1 14 19 11 4 -1 14 3 22 10 10 8 12 7 9 -10 -3 -15 0 -18 12 -14 13 5 14 2 4
-18 -12 -23 -12 -23 4 -4 9 11 21 19 26 17 6 -1 8 2 5 7 -9 14 20 21 34 8 10
-9 11 -9 6 1 -5 7 1 16 16 21 13 6 17 10 11 10 -7 1 -13 5 -13 10 0 5 9 7 20
4 11 -3 17 -10 13 -16 -4 -6 -1 -7 7 -2 7 4 28 9 47 11 51 5 109 50 121 94 8
29 3 158 -12 345 -18 211 -42 522 -51 653 l-5 63 37 -28 c21 -15 44 -33 53
-40 64 -50 112 -83 119 -83 5 0 11 -4 13 -8 3 -10 209 -149 313 -212 39 -23
73 -48 77 -54 4 -6 8 -8 8 -3 0 4 18 -4 41 -18 142 -91 344 -185 379 -178 3 1
20 3 38 6 18 3 44 13 58 21 26 18 67 77 79 116 13 41 90 193 128 252 74 116
191 200 342 243 84 24 101 34 114 62 15 33 -1 60 -47 81 -20 9 -40 16 -44 16
-3 1 -10 4 -14 9 -4 4 -16 7 -26 7 -10 0 -18 5 -18 10 0 6 -10 10 -23 10 -13
0 -27 4 -32 8 -6 5 -50 26 -100 47 -267 114 -535 242 -745 357 -36 20 -96 53
-135 73 -38 21 -77 44 -86 51 -9 8 -19 11 -22 7 -4 -3 -7 -1 -7 5 0 7 -7 12
-15 12 -8 0 -15 5 -15 10 0 6 -5 10 -12 10 -16 0 -479 293 -546 345 -3 2 -9
66 -17 185 -6 105 -13 189 -20 255 -2 28 -7 91 -10 140 -3 50 -8 106 -10 125
-2 19 -7 80 -11 135 -3 55 -7 113 -9 129 -2 15 -7 72 -10 125 -4 53 -8 112
-10 131 -3 19 -7 78 -10 130 -3 52 -8 109 -10 126 -3 17 -7 76 -11 130 -7 101
-11 149 -13 149 -1 0 -4 43 -6 95 -3 52 -8 115 -10 140 -5 42 -8 88 -19 250
-3 36 -5 65 -6 65 -1 0 -3 25 -5 55 -4 57 -10 139 -21 270 -3 41 -6 90 -7 108
0 17 -3 32 -6 32 -3 0 -7 33 -7 73 -1 39 -4 91 -6 115 -3 26 -1 42 6 43 6 0
306 0 666 0 623 0 657 1 695 19 25 12 47 33 60 55 20 39 22 100 3 122 -6 7 -7
13 -2 13 4 0 -5 14 -21 30 l-30 31 1 130 c0 113 2 132 17 140 40 23 60 108 39
161 -14 35 -43 68 -59 68 -7 0 -13 5 -13 12 0 6 -3 8 -6 5 -4 -4 -20 5 -36 18
-16 14 -39 25 -51 26 -12 0 -29 2 -38 4 -9 1 -36 -6 -60 -18 -43 -20 -60 -20
-641 -21 l-597 -1 0 25 c-1 14 -2 39 -3 55 l-3 30 850 1 c468 1 862 4 877 7
39 8 68 39 73 78 5 39 -11 99 -27 99 -6 0 -9 3 -5 6 11 12 -108 136 -210 219
-34 27 -61 50 -60 51 12 11 102 11 133 0 21 -7 48 -12 59 -10 28 4 155 63 170
78 31 31 47 80 41 124 -6 41 -1 55 66 181 39 75 83 159 96 186 14 28 33 61 43
75 9 14 17 28 18 32 1 4 9 24 17 44 8 20 13 43 10 50 -3 8 -1 14 3 14 5 0 7 8
4 18 -3 14 3 18 29 20 82 5 137 54 146 128 6 59 -13 99 -62 133 -43 29 -57 30
-176 17 -36 -5 -77 -9 -91 -11 -15 -1 -32 -6 -39 -10 -9 -6 -11 -4 -5 5 5 8 4
11 -2 7 -14 -9 -98 -19 -258 -32 -240 -20 -291 -24 -380 -30 -44 -2 -105 -7
-135 -9 -181 -15 -609 -34 -1170 -53 -474 -16 -2213 -8 -2610 12 -36 2 -103 4
-150 5 -47 2 -90 5 -97 7 -9 3 -11 130 -11 504 l0 500 116 56 c64 31 123 62
130 70 7 7 17 13 21 13 21 0 110 101 119 134 12 42 0 95 -26 119 -43 39 -190
91 -320 113 -15 3 -54 10 -87 16 -33 6 -71 12 -85 14 -52 9 -75 13 -75 14 0 1
-18 3 -40 6 -22 3 -51 6 -65 8 -14 2 -50 7 -80 10 -30 4 -66 10 -80 13 -14 3
-38 7 -55 8 -16 1 -30 3 -30 4 0 1 -22 4 -50 7 -94 9 -130 12 -130 14 0 1 -8
3 -18 5 -16 3 -17 -3 -13 -58z m-1369 -2477 c0 -1 18 -4 40 -5 22 -2 76 -6
120 -9 84 -7 167 -12 300 -20 44 -3 80 -6 80 -7 0 0 25 -2 55 -4 75 -4 232
-15 305 -20 33 -3 112 -7 175 -10 63 -2 115 -5 115 -6 0 -2 90 -8 163 -10 63
-1 72 -4 73 -20 1 -25 1 -127 0 -136 -1 -5 -350 -8 -776 -8 l-775 0 6 85 c4
47 8 94 9 105 1 11 3 32 4 46 1 25 3 26 54 23 28 -1 52 -3 52 -4z m5385 -130
c0 -3 -14 -19 -30 -37 -17 -18 -30 -35 -30 -38 0 -3 -11 -16 -24 -28 -23 -21
-32 -22 -175 -22 -83 1 -153 3 -155 6 -4 4 -15 107 -12 110 1 0 75 3 166 6 91
3 166 6 167 6 4 5 93 1 93 -3z m-2483 -15 c180 -2 513 -4 738 -5 l410 0 1 -53
1 -52 -741 1 c-408 1 -747 2 -753 3 -9 1 -13 19 -13 54 0 54 6 71 21 62 4 -3
155 -7 336 -10z m-4677 -395 c0 -5 -7 -7 -15 -4 -8 4 -15 8 -15 10 0 2 7 4 15
4 8 0 15 -4 15 -10z m60 1 c0 -5 -9 -7 -20 -4 -11 3 -20 7 -20 9 0 2 9 4 20 4
11 0 20 -4 20 -9z m668 -14 c4 -18 -5 -18 -170 -12 -95 4 -198 8 -228 10 -30
1 -97 4 -147 6 -51 1 -97 6 -103 9 -6 3 137 6 317 6 310 -1 328 -2 331 -19z
m2172 15 c0 -8 -23 -47 -31 -52 -9 -6 -107 -5 -689 6 -206 3 -412 7 -457 8
-84 1 -99 6 -90 29 4 11 115 13 636 13 347 0 631 -2 631 -4z m2955 -52 l0 -55
-140 0 c-77 -1 -148 3 -157 7 -10 5 -18 5 -18 1 0 -4 -28 -7 -62 -5 -35 1 -74
3 -88 3 -14 1 -38 1 -55 0 -77 -3 -505 5 -505 9 0 3 -102 5 -228 5 -298 0
-282 -3 -282 49 l0 42 767 0 768 -1 0 -55z m-3516 -814 c6 -4 11 -4 11 1 0 9
138 8 148 -1 6 -7 -107 -241 -140 -288 -11 -16 -16 -28 -11 -28 4 0 4 -4 -2
-8 -10 -7 -16 -18 -84 -147 -20 -38 -39 -72 -42 -75 -4 -3 -17 -25 -29 -50
-13 -25 -56 -101 -96 -168 -41 -68 -74 -128 -74 -132 0 -5 -3 -10 -8 -12 -11
-4 -102 -154 -102 -167 0 -6 -4 -11 -8 -11 -5 0 -18 -17 -30 -37 -18 -34 -114
-183 -142 -223 -31 -45 -215 -312 -242 -352 -18 -27 -36 -48 -40 -48 -4 0 -4
21 -2 48 3 26 7 74 8 108 1 33 5 65 7 70 2 5 4 39 4 76 0 38 2 68 5 68 3 0 5
24 6 53 1 48 8 158 19 287 2 30 7 93 10 140 3 47 7 112 10 145 3 33 7 92 9
130 3 39 7 104 11 145 3 41 8 100 9 130 2 30 7 96 11 145 9 105 12 150 14 187
l1 27 379 -4 c209 -1 384 -6 390 -9z m2901 -31 c631 -8 593 -8 605 -5 6 1 26
2 45 1 31 -1 35 -4 36 -28 0 -16 4 -71 8 -123 4 -52 10 -117 11 -145 4 -47 7
-95 20 -255 3 -36 7 -99 11 -140 3 -41 7 -91 9 -110 2 -19 7 -80 10 -135 4
-55 8 -111 10 -125 2 -14 7 -72 10 -130 4 -58 8 -121 10 -140 2 -19 6 -73 10
-120 3 -47 8 -105 11 -130 3 -25 7 -83 10 -130 2 -47 6 -103 9 -125 2 -22 7
-85 11 -140 7 -124 9 -138 16 -150 2 -6 2 -20 -1 -33 -5 -21 -17 -12 -116 90
-60 63 -148 156 -195 207 -47 52 -97 106 -111 122 -14 15 -44 49 -65 75 -21
26 -52 62 -69 80 -16 18 -40 46 -52 61 -12 15 -35 44 -52 63 -17 19 -34 40
-38 45 -5 6 -32 39 -61 75 -68 85 -52 64 -181 235 -61 83 -117 157 -124 165
-7 9 -32 45 -56 80 -146 213 -211 312 -211 320 0 6 -4 10 -10 10 -5 0 -10 5
-10 12 0 6 -10 25 -23 42 -39 52 -264 436 -279 477 -5 13 11 15 136 13 77 -1
377 -5 666 -9z m-4680 -5185 c0 -5 -4 -10 -10 -10 -5 0 -10 5 -10 10 0 6 5 10
10 10 6 0 10 -4 10 -10z m273 -65 c-3 -9 -8 -14 -10 -11 -3 3 -2 9 2 15 9 16
15 13 8 -4z m6127 -49 c0 -3 -4 -8 -10 -11 -5 -3 -10 -1 -10 4 0 6 5 11 10 11
6 0 10 -2 10 -4z m50 -10 c0 -3 -4 -8 -10 -11 -5 -3 -10 -1 -10 4 0 6 5 11 10
11 6 0 10 -2 10 -4z m-240 -12 c0 -8 -19 -13 -24 -6 -3 5 1 9 9 9 8 0 15 -2
15 -3z m77 -12 c-1 -21 -24 -26 -24 -6 0 7 4 11 9 8 4 -3 8 0 8 5 0 6 2 11 4
11 3 0 4 -8 3 -18z m132 15 c-2 -1 -11 -8 -21 -15 -12 -10 -18 -10 -24 -1 -4
7 -3 9 4 5 6 -3 13 -2 17 4 3 5 11 10 17 10 6 0 9 -1 7 -3z"/>
<path d="M3123 1553 c-15 -5 -17 -23 -4 -23 5 0 11 7 15 15 3 8 4 15 3 14 -1
0 -8 -3 -14 -6z"/>
<path d="M8830 1439 c0 -5 5 -7 10 -4 6 3 10 8 10 11 0 2 -4 4 -10 4 -5 0 -10
-5 -10 -11z"/>
</g>
</svg>
